<?xml version="1.0" encoding="utf-8"?>
<!-- Generator: Adobe Illustrator 27.9.4, SVG Export Plug-In . SVG Version: 9.03 Build 54784)  -->
<svg version="1.1" xmlns="http://www.w3.org/2000/svg" xmlns:xlink="http://www.w3.org/1999/xlink" x="0px" y="0px" width="25px"
	 height="40px" viewBox="0 0 25 40" style="enable-background:new 0 0 25 40;" xml:space="preserve">
<style type="text/css">
	.st0{fill:#EDFF43;}
	.st1{clip-path:url(#SVGID_00000093153211329391148490000011398820513793713834_);fill:#EDFF43;}
</style>
<g id="Ebene_1">
	<g id="gelbschwarz">
		<g>
			<rect class="st0" width="25" height="25"/>
			<g>
				<g>
					<defs>
						<rect id="SVGID_1_" y="29" width="25" height="11"/>
					</defs>
					<clipPath id="SVGID_00000104667762339769766700000005332778037237821884_">
						<use xlink:href="#SVGID_1_"  style="overflow:visible;"/>
					</clipPath>
					<polygon style="clip-path:url(#SVGID_00000104667762339769766700000005332778037237821884_);fill:#EDFF43;" points="22.5,23.6 
						12.5,38.6 2.5,23.6 12.5,8.6 					"/>
				</g>
			</g>
		</g>
		<path d="M1.5,26"/>
	</g>
</g>
<g id="Ebene_2">
	<g id="R_x3C_Gruppe_x3E__00000150091702564290342420000015977531112975270812_">
		<g>
			<g>
				<g>
					<polygon points="25,2.1 25,5.1 22.9,5.1 22.9,2.1 19.9,2.1 19.9,0 22.9,0 25,0 					"/>
				</g>
				<polygon points="0,22.9 0,19.9 2.1,19.9 2.1,22.9 5.1,22.9 5.1,25 2.1,25 0,25 				"/>
			</g>
		</g>
	</g>
	<g>
		<path d="M13.2,3.5c1.1,0,2.1,0.1,2.9,0.4c0.9,0.2,1.6,0.6,2.2,1c0.6,0.5,1.1,1.1,1.4,1.8c0.3,0.7,0.5,1.6,0.5,2.5
			c0,1.2-0.3,2.3-0.8,3.1c-0.5,0.8-1.2,1.5-2.2,1.9l3.1,5.9c0,0.1,0.1,0.2,0.1,0.3c0,0.1-0.1,0.3-0.2,0.4S20,21,19.8,21h-3.4
			c-0.3,0-0.6-0.1-0.7-0.2c-0.1-0.2-0.3-0.3-0.3-0.5L12.6,15h-2.3v5.4c0,0.2-0.1,0.3-0.2,0.5C10,20.9,9.8,21,9.7,21H6.4
			c-0.2,0-0.3-0.1-0.5-0.2c-0.1-0.1-0.2-0.3-0.2-0.5V4.2c0-0.2,0.1-0.3,0.2-0.5C6,3.6,6.2,3.5,6.4,3.5H13.2z M10.3,11.1h2.8
			c0.7,0,1.3-0.1,1.7-0.4c0.5-0.3,0.7-0.8,0.7-1.4c0-0.7-0.2-1.2-0.7-1.5c-0.5-0.3-1-0.4-1.7-0.4h-2.8V11.1z"/>
	</g>
</g>
</svg>
