<?xml version="1.0" encoding="utf-8"?>
<!-- Generator: Adobe Illustrator 27.9.4, SVG Export Plug-In . SVG Version: 9.03 Build 54784)  -->
<svg version="1.1" xmlns="http://www.w3.org/2000/svg" xmlns:xlink="http://www.w3.org/1999/xlink" x="0px" y="0px" width="25px"
	 height="40px" viewBox="0 0 25 40" style="enable-background:new 0 0 25 40;" xml:space="preserve">
<style type="text/css">
	.st0{display:none;}
	.st1{display:inline;}
	.st2{clip-path:url(#SVGID_00000136392387026159957430000006617290618089404051_);}
	.st3{fill:#F44566;}
	.st4{clip-path:url(#SVGID_00000117659263189396283070000007395687375088188565_);fill:#F44566;}
	
		.st5{display:inline;clip-path:url(#SVGID_00000179607879501973688980000012810137228709395330_);fill:none;stroke:#FF7BAC;stroke-width:3;stroke-miterlimit:10;}
	.st6{fill:#FFFFFF;}
	.st7{fill:#333333;}
	.st8{clip-path:url(#SVGID_00000175282820033851283520000004745331019838628263_);fill:#333333;}
	.st9{fill:#EDFF43;}
	.st10{clip-path:url(#SVGID_00000123402547877270907150000011619776170388358276_);fill:#EDFF43;}
	
		.st11{display:inline;clip-path:url(#SVGID_00000174566857641178273840000007130551989049068199_);fill:none;stroke:#FF7BAC;stroke-width:3;stroke-miterlimit:10;}
</style>
<g id="Ebene_8" class="st0">
	<g id="qY4hla_00000081638254413592663410000011898830988021634961_" class="st1">
		
			<image style="overflow:visible;" width="1920" height="1032" id="qY4hla" xlink:href="CE50C40E70B5578A.jpg"  transform="matrix(1 0 0 1 -1523.9917 -438)">
		</image>
	</g>
</g>
<g id="rotweiss" class="st0">
	<g class="st1">
		
			<image style="overflow:visible;opacity:0.25;" width="31" height="46" xlink:href="CE50C40E70B5578E.png"  transform="matrix(1 0 0 1 32.0083 6)">
		</image>
		<g>
			<g>
				<g>
					<defs>
						<rect id="SVGID_1_" x="35" y="37" width="25" height="11"/>
					</defs>
					<clipPath id="SVGID_00000161614309508400165160000000393760926807657098_">
						<use xlink:href="#SVGID_1_"  style="overflow:visible;"/>
					</clipPath>
				</g>
			</g>
			<g>
				<rect x="35" y="8" width="25" height="25"/>
				<g>
					<defs>
						<rect id="SVGID_00000170969589807312360970000009612359908962857347_" x="35" y="37" width="25" height="11"/>
					</defs>
					<clipPath id="SVGID_00000057864981761138327560000005481780939999038610_">
						<use xlink:href="#SVGID_00000170969589807312360970000009612359908962857347_"  style="overflow:visible;"/>
					</clipPath>
					<polygon style="clip-path:url(#SVGID_00000057864981761138327560000005481780939999038610_);" points="57.5,30.6 47.5,45.6 
						37.5,30.6 47.5,15.6 					"/>
				</g>
			</g>
			<g>
				<g>
					<defs>
						<rect id="SVGID_00000079466697259242704010000014287685268129163955_" x="35" y="37" width="25" height="11"/>
					</defs>
					<clipPath id="SVGID_00000127022622706960124560000010293896525913492380_">
						<use xlink:href="#SVGID_00000079466697259242704010000014287685268129163955_"  style="overflow:visible;"/>
					</clipPath>
				</g>
			</g>
		</g>
	</g>
	<g class="st1">
		<rect x="35" y="8" class="st3" width="25" height="25"/>
		<g>
			<defs>
				<rect id="SVGID_00000183966892719521205010000013340526238973170054_" x="35" y="37" width="25" height="11"/>
			</defs>
			<clipPath id="SVGID_00000153672972684638843820000013464373910340387518_">
				<use xlink:href="#SVGID_00000183966892719521205010000013340526238973170054_"  style="overflow:visible;"/>
			</clipPath>
			<polygon style="clip-path:url(#SVGID_00000153672972684638843820000013464373910340387518_);fill:#F44566;" points="57.5,31.6 
				47.5,46.6 37.5,31.6 47.5,16.6 			"/>
		</g>
	</g>
	<g>
		<defs>
			<rect id="SVGID_00000183928920606591664900000011165573740756544919_" x="34.5" y="29.5" width="27" height="11"/>
		</defs>
		<clipPath id="SVGID_00000114036089895253185290000001143591891339941550_" class="st1">
			<use xlink:href="#SVGID_00000183928920606591664900000011165573740756544919_"  style="overflow:visible;"/>
		</clipPath>
		
			<rect x="35" y="7" transform="matrix(0.7071 -0.7071 0.7071 0.7071 0.1263 39.3049)" style="display:inline;clip-path:url(#SVGID_00000114036089895253185290000001143591891339941550_);fill:none;stroke:#FF7BAC;stroke-width:3;stroke-miterlimit:10;" width="25" height="25"/>
	</g>
	<g id="R_x3C_Gruppe_x3E_" class="st1">
		<g>
			<g>
				<g>
					<polygon class="st6" points="60,10.1 60,13.1 57.9,13.1 57.9,10.1 54.9,10.1 54.9,8 57.9,8 60,8 					"/>
				</g>
				<polygon class="st6" points="35,30.9 35,27.9 37.1,27.9 37.1,30.9 40.1,30.9 40.1,33 37.1,33 35,33 				"/>
			</g>
		</g>
		<g>
			<path class="st6" d="M47.6,11.8c1.1,0,2.1,0.1,3,0.4c0.9,0.2,1.6,0.6,2.3,1c0.6,0.5,1.1,1.1,1.4,1.8c0.3,0.7,0.5,1.6,0.5,2.5
				c0,1.3-0.3,2.3-0.8,3.1c-0.5,0.8-1.3,1.5-2.2,1.9l3.2,5.9c0.1,0.1,0.1,0.2,0.1,0.3c0,0.1-0.1,0.3-0.2,0.4
				c-0.1,0.1-0.2,0.2-0.4,0.2H51c-0.3,0-0.6-0.1-0.7-0.2c-0.1-0.1-0.3-0.3-0.3-0.5l-2.8-5.3h-2.3v5.3c0,0.2-0.1,0.3-0.2,0.5
				c-0.1,0.1-0.3,0.2-0.5,0.2h-3.3c-0.2,0-0.3-0.1-0.5-0.2c-0.1-0.1-0.2-0.3-0.2-0.5V12.4c0-0.2,0.1-0.3,0.2-0.5
				c0.1-0.1,0.3-0.2,0.5-0.2H47.6z M44.7,19.3h2.9c0.7,0,1.3-0.1,1.8-0.4c0.5-0.3,0.7-0.8,0.7-1.5c0-0.7-0.2-1.2-0.7-1.4
				c-0.5-0.3-1.1-0.4-1.8-0.4h-2.9V19.3z"/>
		</g>
	</g>
	<path class="st1" d="M36,34"/>
</g>
<g id="schatten">
	<g>
		
			<image style="overflow:visible;opacity:0.25;" width="31" height="46" xlink:href="CE50C40E70B55789.png"  transform="matrix(1 0 0 1 -2.9917 -2)">
		</image>
		<g>
			<g>
				<g>
					<defs>
						<rect id="SVGID_00000080902935189063830900000003359640100003280572_" x="0" y="29" width="25" height="11"/>
					</defs>
					<clipPath id="SVGID_00000070808641184811823300000017602566498785592485_">
						<use xlink:href="#SVGID_00000080902935189063830900000003359640100003280572_"  style="overflow:visible;"/>
					</clipPath>
				</g>
			</g>
			<g>
				<rect x="0" y="0" class="st7" width="25" height="25"/>
				<g>
					<defs>
						<rect id="SVGID_00000115514996178557009460000007984033901508443817_" x="0" y="29" width="25" height="11"/>
					</defs>
					<clipPath id="SVGID_00000063626558241283923450000008482820669592729238_">
						<use xlink:href="#SVGID_00000115514996178557009460000007984033901508443817_"  style="overflow:visible;"/>
					</clipPath>
					<polygon style="clip-path:url(#SVGID_00000063626558241283923450000008482820669592729238_);fill:#333333;" points="22.5,22.6 
						12.5,37.6 2.5,22.6 12.5,7.6 					"/>
				</g>
			</g>
			<g>
				<g>
					<defs>
						<rect id="SVGID_00000176004342617718528330000009888182359614285992_" x="0" y="29" width="25" height="11"/>
					</defs>
					<clipPath id="SVGID_00000081638089692670689770000010464004927079026310_">
						<use xlink:href="#SVGID_00000176004342617718528330000009888182359614285992_"  style="overflow:visible;"/>
					</clipPath>
				</g>
			</g>
		</g>
	</g>
</g>
<g id="gelbschwarz" class="st0">
	<g class="st1">
		<rect x="0" y="0" class="st9" width="25" height="25"/>
		<g>
			<defs>
				<rect id="SVGID_00000060025651954079243980000016765988987548987793_" x="0" y="29" width="25" height="11"/>
			</defs>
			<clipPath id="SVGID_00000147901752237642243780000014142948474262868381_">
				<use xlink:href="#SVGID_00000060025651954079243980000016765988987548987793_"  style="overflow:visible;"/>
			</clipPath>
			<polygon style="clip-path:url(#SVGID_00000147901752237642243780000014142948474262868381_);fill:#EDFF43;" points="22.5,23.6 
				12.5,38.6 2.5,23.6 12.5,8.6 			"/>
		</g>
	</g>
	<g>
		<defs>
			<rect id="SVGID_00000083060766966970167790000013093038676342073254_" x="0" y="21.5" width="27" height="11"/>
		</defs>
		<clipPath id="SVGID_00000063623393943194873870000014977901129451109269_" class="st1">
			<use xlink:href="#SVGID_00000083060766966970167790000013093038676342073254_"  style="overflow:visible;"/>
		</clipPath>
		
			<rect x="0.5" y="-1" transform="matrix(0.7071 -0.7071 0.7071 0.7071 -4.3217 12.5665)" style="display:inline;clip-path:url(#SVGID_00000063623393943194873870000014977901129451109269_);fill:none;stroke:#FF7BAC;stroke-width:3;stroke-miterlimit:10;" width="25" height="25"/>
	</g>
	<g id="R_x3C_Gruppe_x3E__00000150091702564290342420000015977531112975270812_" class="st1">
		<g>
			<g>
				<g>
					<polygon points="25,2.1 25,5.1 22.9,5.1 22.9,2.1 19.9,2.1 19.9,0 22.9,0 25,0 					"/>
				</g>
				<polygon points="0,22.9 0,19.9 2.1,19.9 2.1,22.9 5.1,22.9 5.1,25 2.1,25 0,25 				"/>
			</g>
		</g>
		<g>
			<path d="M12.6,3.8c1.1,0,2.1,0.1,3,0.4c0.9,0.2,1.6,0.6,2.3,1c0.6,0.5,1.1,1.1,1.4,1.8c0.3,0.7,0.5,1.6,0.5,2.5
				c0,1.3-0.3,2.3-0.8,3.1c-0.5,0.8-1.3,1.5-2.2,1.9l3.2,5.9c0.1,0.1,0.1,0.2,0.1,0.3c0,0.1-0.1,0.3-0.2,0.4
				c-0.1,0.1-0.2,0.2-0.4,0.2H16c-0.3,0-0.6-0.1-0.7-0.2c-0.1-0.1-0.3-0.3-0.3-0.5l-2.8-5.3H9.7v5.3c0,0.2-0.1,0.3-0.2,0.5
				c-0.1,0.1-0.3,0.2-0.5,0.2H5.7c-0.2,0-0.3-0.1-0.5-0.2C5.1,20.9,5,20.8,5,20.6V4.4c0-0.2,0.1-0.3,0.2-0.5
				c0.1-0.1,0.3-0.2,0.5-0.2H12.6z M9.7,11.3h2.9c0.7,0,1.3-0.1,1.8-0.4c0.5-0.3,0.7-0.8,0.7-1.5S14.8,8.3,14.4,8
				c-0.5-0.3-1.1-0.4-1.8-0.4H9.7V11.3z"/>
		</g>
	</g>
	<path class="st1" d="M1.5,26"/>
</g>
</svg>
