<?xml version="1.0" encoding="utf-8"?>
<!-- Generator: Adobe Illustrator 27.9.6, SVG Export Plug-In . SVG Version: 9.03 Build 54986)  -->
<svg version="1.1" id="Menu_x5F_icon" xmlns="http://www.w3.org/2000/svg" xmlns:xlink="http://www.w3.org/1999/xlink" x="0px"
	 y="0px" width="42px" height="42px" viewBox="0 0 42 42" style="enable-background:new 0 0 42 42;" xml:space="preserve">
<style type="text/css">
	.st0{fill:#FFFFFF;}
	.st1{fill:#020202;}
</style>
<rect x="1" y="1" class="st0" width="40" height="40"/>
<polygon points="41,5.1 41,11.1 37,11.1 37,5 31,5 31,1 41,1 41,1 "/>
<polygon points="1,36.9 1,30.9 5,30.9 5,37 11,37 11,41 1,41 1,41 "/>
<path class="st1" d="M16,6c-4,0-7.2,3.2-7.2,7.2c0,2.1,0.8,4,2.4,5.4c0.9,0.7,4.2,8.9,4.2,8.9c0.1,0.3,0.4,0.5,0.6,0.5
	c0.2,0,0.5-0.2,0.6-0.5c0,0,3.3-8.2,4.2-8.9c1.6-1.4,2.4-3.2,2.4-5.4C23.2,9.2,20,6,16,6z M17.9,12.6c-0.9,0-1.7-0.7-1.7-1.6
	c0-0.9,0.7-1.7,1.7-1.7c0.9,0,1.7,0.7,1.7,1.7C19.5,11.9,18.8,12.6,17.9,12.6z"/>
<circle cx="13.5" cy="31.5" r="1.5"/>
<circle cx="18.5" cy="31.5" r="1.5"/>
<circle cx="23.5" cy="31.5" r="1.5"/>
<circle cx="28.5" cy="31.5" r="1.5"/>
<circle cx="33.5" cy="31.5" r="1.5"/>
<circle cx="38.5" cy="31.5" r="1.5"/>
</svg>
